<svg width="24" height="24" viewBox="0 0 24 24" fill="none" xmlns="http://www.w3.org/2000/svg">
<path d="M15.999 12C15.999 9.79703 14.202 8.00003 11.999 8.00003C9.79603 8.00003 7.99903 9.79703 7.99903 12C7.99903 14.203 9.79603 16 11.999 16C14.202 16 15.999 14.203 15.999 12ZM18.155 12C18.155 15.406 15.405 18.156 11.999 18.156C8.59303 18.156 5.84303 15.406 5.84303 12C5.84303 8.59403 8.59303 5.84403 11.999 5.84403C15.405 5.84403 18.155 8.59403 18.155 12ZM19.843 5.59403C19.843 6.39103 19.202 7.03103 18.406 7.03103C17.61 7.03103 16.969 6.39003 16.969 5.59403C16.969 4.79803 17.61 4.15703 18.406 4.15703C19.202 4.15703 19.843 4.79803 19.843 5.59403ZM11.999 2.15603C10.249 2.15603 6.49903 2.01503 4.92103 2.64003C4.37403 2.85903 3.96803 3.12403 3.54603 3.54603C3.12403 3.96803 2.85803 4.37403 2.64003 4.92103C2.01503 6.49903 2.15603 10.249 2.15603 11.999C2.15603 13.749 2.01503 17.499 2.64003 19.077C2.85903 19.624 3.12403 20.03 3.54603 20.452C3.96803 20.874 4.37403 21.14 4.92103 21.358C6.49903 21.983 10.249 21.842 11.999 21.842C13.749 21.842 17.499 21.983 19.077 21.358C19.624 21.139 20.03 20.874 20.452 20.452C20.874 20.03 21.14 19.624 21.358 19.077C21.983 17.499 21.842 13.749 21.842 11.999C21.842 10.249 21.983 6.49903 21.358 4.92103C21.139 4.37403 20.874 3.96803 20.452 3.54603C20.03 3.12403 19.624 2.85803 19.077 2.64003C17.499 2.01503 13.749 2.15603 11.999 2.15603V2.15603ZM23.999 12C23.999 13.656 24.015 15.297 23.921 16.953C23.827 18.875 23.39 20.578 21.984 21.984C20.578 23.39 18.875 23.828 16.953 23.921C15.297 24.015 13.656 23.999 12 23.999C10.344 23.999 8.70303 24.015 7.04703 23.921C5.12503 23.827 3.42203 23.39 2.01603 21.984C0.610032 20.578 0.172032 18.875 0.079032 16.953C-0.014968 15.297 0.001032 13.656 0.001032 12C0.001032 10.344 -0.014968 8.70303 0.079032 7.04703C0.173032 5.12503 0.610032 3.42203 2.01603 2.01603C3.42203 0.610032 5.12503 0.172032 7.04703 0.0790321C8.70303 -0.0149679 10.344 0.00103199 12 0.00103199C13.656 0.00103199 15.297 -0.0149679 16.953 0.0790321C18.875 0.173032 20.578 0.610032 21.984 2.01603C23.39 3.42203 23.828 5.12503 23.921 7.04703C24.015 8.70303 23.999 10.344 23.999 12Z" fill="white"/>
</svg>
